<svg class="svg-icon" style="width: 1em; height: 1em;vertical-align: middle;fill: currentColor;overflow: hidden;" viewBox="0 0 1024 1024" version="1.1" xmlns="http://www.w3.org/2000/svg"><path d="M746.666667 725.333333a21.333333 21.333333 0 0 1-21.333334-21.333333V298.666667H320a21.333333 21.333333 0 0 1 0-42.666667h426.666667a21.333333 21.333333 0 0 1 21.333333 21.333333v426.666667a21.333333 21.333333 0 0 1-21.333333 21.333333z" fill="#333333" /><path d="M277.333333 768a21.333333 21.333333 0 0 1-15.146666-6.186667 21.333333 21.333333 0 0 1 0-30.293333l469.333333-469.333333a21.333333 21.333333 0 0 1 30.293333 30.293333l-469.333333 469.333333A21.333333 21.333333 0 0 1 277.333333 768z" fill="#333333" /></svg>