<svg id="Layer_1" viewBox="0 0 24 24" xmlns="http://www.w3.org/2000/svg" data-name="Layer 1"><path d="m21.653 7.529c-.034-.218-.14-.418-.299-.57l-5.72-5.442c-.137-.13-.308-.219-.492-.256-.863-.173-1.92-.261-3.142-.261-4.076 0-8.074.988-8.242 1.03-.358.09-.639.37-.728.728-.042.168-1.03 4.178-1.03 9.243s.988 9.074 1.03 9.243c.089.358.369.638.728.728.168.042 4.166 1.03 8.242 1.03s8.074-.988 8.242-1.03c.358-.09.639-.37.728-.728.042-.168 1.03-4.178 1.03-9.243.003-1.501-.11-2.963-.347-4.471zm-3.162-.533c-1.164-.011-2.19-.109-2.832-.188-.068-.551-.144-1.444-.156-2.654zm-6.491 14.004c-2.939 0-5.922-.568-7.161-.835-.266-1.272-.839-4.452-.839-8.165s.573-6.894.839-8.166c1.237-.267 4.215-.834 7.161-.834.543 0 1.049.022 1.515.06-.068 3.126.277 4.776.293 4.848.087.396.404.7.804.77.094.017 1.865.322 4.081.322.359 0 .743-.029 1.12-.048.117 1.016.19 2.024.188 3.047 0 3.713-.573 6.894-.839 8.166-1.237.267-4.215.834-7.161.834zm3.575-6.8c.441.332.53.958.199 1.4-.91 1.213-1.987 2.29-3.199 3.2-.365.257-.836.257-1.2 0-1.214-.91-2.291-1.987-3.2-3.201-.332-.442-.242-1.068.2-1.4.441-.332 1.068-.241 1.399.201.367.49.773.946 1.2 1.382v-4.782c0-.552.447-1 1-1s1 .448 1 1v4.781c.427-.436.833-.892 1.2-1.381.332-.442.957-.532 1.4-.2z"/></svg>