<svg width="290" height="667" fill="none" xmlns="http://www.w3.org/2000/svg"><g clip-path="url(#clip0_10708_7385)"><path d="M0 14C0 6.268 6.268 0 14 0h276v653c0 7.732-6.268 14-14 14H14c-7.732 0-14-6.268-14-14V14z" fill="#fff"/><path d="M79.004 310.214H-47.5V171.667c0-8.845 1.607-15.222 4.68-20.859 3.082-5.653 7.653-10.593 13.648-16.549l.001-.002L75.844 28.891c5.093-4.546 9.566-7.874 16.115-10.08 6.57-2.214 15.266-3.311 28.819-3.311h126.436v129.249c0 20.843-6.767 34.726-18.788 47.257l-.003.004-98.307 98.435-.002.002-1.158 1.174.355.351-.355-.351c-5.714 5.791-10.277 10.408-17.353 13.604-7.08 3.198-16.722 4.989-32.6 4.989z" stroke="url(#paint0_linear_10708_7385)"/><path d="M89.39 55.51C100.364 45.706 108.828 41 137.927 41H274v490.984c0 22.508-7.317 37.53-20.293 51.064l-105.39 105.59-1.243 1.259C134.839 702.305 127.251 710 93.146 710H-43V209.042c0-19.118 6.951-27.727 19.805-40.505L89.39 55.509z" fill="#F5F5F5"/><path d="M274 601c-1.945.946-3.537 2.177-5.276 3.7l-48.27 47.534c-1.742 1.699-3.232 3.223-4.454 4.766h51.424c3.632 0 6.576-2.895 6.576-6.465V601z" fill="url(#paint1_linear_10708_7385)"/></g><defs><linearGradient id="paint0_linear_10708_7385" x1="-48" y1="310.714" x2="247.714" y2="15" gradientUnits="userSpaceOnUse"><stop stop-color="#FFB200"/><stop offset="1" stop-color="#FF4C00"/></linearGradient><linearGradient id="paint1_linear_10708_7385" x1="216" y1="657" x2="271.966" y2="599.036" gradientUnits="userSpaceOnUse"><stop stop-color="#FFB200"/><stop offset="1" stop-color="#FF4C00"/></linearGradient><clipPath id="clip0_10708_7385"><path d="M0 14C0 6.268 6.268 0 14 0h276v653c0 7.732-6.268 14-14 14H14c-7.732 0-14-6.268-14-14V14z" fill="#fff"/></clipPath></defs></svg>